<svg id="visual" viewBox="0 0 540 960" width="540" height="960" xmlns="http://www.w3.org/2000/svg" xmlns:xlink="http://www.w3.org/1999/xlink" version="1.1"><rect x="0" y="0" width="540" height="960" fill="#c3ffe8"></rect><path d="M0 517L22.5 547.3C45 577.7 90 638.3 135 641.5C180 644.7 225 590.3 270 569.8C315 549.3 360 562.7 405 516.7C450 470.7 495 365.3 517.5 312.7L540 260L540 961L517.5 961C495 961 450 961 405 961C360 961 315 961 270 961C225 961 180 961 135 961C90 961 45 961 22.5 961L0 961Z" fill="#0066FF" stroke-linecap="round" stroke-linejoin="miter"></path></svg>