<svg id="visual" viewBox="0 0 540 960" width="540" height="960" xmlns="http://www.w3.org/2000/svg" xmlns:xlink="http://www.w3.org/1999/xlink" version="1.1"><path d="M447 960L444.3 906.7C441.7 853.3 436.3 746.7 435.5 640C434.7 533.3 438.3 426.7 442 320C445.7 213.3 449.3 106.7 451.2 53.3L453 0L540 0L540 53.3C540 106.7 540 213.3 540 320C540 426.7 540 533.3 540 640C540 746.7 540 853.3 540 906.7L540 960Z" fill="#6198ff"></path><path d="M415 960L410.5 906.7C406 853.3 397 746.7 395.2 640C393.3 533.3 398.7 426.7 402.2 320C405.7 213.3 407.3 106.7 408.2 53.3L409 0L454 0L452.2 53.3C450.3 106.7 446.7 213.3 443 320C439.3 426.7 435.7 533.3 436.5 640C437.3 746.7 442.7 853.3 445.3 906.7L448 960Z" fill="#518dff"></path><path d="M388 960L383.5 906.7C379 853.3 370 746.7 367.3 640C364.7 533.3 368.3 426.7 371.8 320C375.3 213.3 378.7 106.7 380.3 53.3L382 0L410 0L409.2 53.3C408.3 106.7 406.7 213.3 403.2 320C399.7 426.7 394.3 533.3 396.2 640C398 746.7 407 853.3 411.5 906.7L416 960Z" fill="#4082ff"></path><path d="M334 960L328.5 906.7C323 853.3 312 746.7 309.3 640C306.7 533.3 312.3 426.7 314.2 320C316 213.3 314 106.7 313 53.3L312 0L383 0L381.3 53.3C379.7 106.7 376.3 213.3 372.8 320C369.3 426.7 365.7 533.3 368.3 640C371 746.7 380 853.3 384.5 906.7L389 960Z" fill="#2d77ff"></path><path d="M307 960L302.5 906.7C298 853.3 289 746.7 287.2 640C285.3 533.3 290.7 426.7 292.5 320C294.3 213.3 292.7 106.7 291.8 53.3L291 0L313 0L314 53.3C315 106.7 317 213.3 315.2 320C313.3 426.7 307.7 533.3 310.3 640C313 746.7 324 853.3 329.5 906.7L335 960Z" fill="#156cff"></path><path d="M247 960L245.3 906.7C243.7 853.3 240.3 746.7 241.3 640C242.3 533.3 247.7 426.7 249.3 320C251 213.3 249 106.7 248 53.3L247 0L292 0L292.8 53.3C293.7 106.7 295.3 213.3 293.5 320C291.7 426.7 286.3 533.3 288.2 640C290 746.7 299 853.3 303.5 906.7L308 960Z" fill="#0063f7"></path><path d="M107 960L105.2 906.7C103.3 853.3 99.7 746.7 100.5 640C101.3 533.3 106.7 426.7 108.5 320C110.3 213.3 108.7 106.7 107.8 53.3L107 0L248 0L249 53.3C250 106.7 252 213.3 250.3 320C248.7 426.7 243.3 533.3 242.3 640C241.3 746.7 244.7 853.3 246.3 906.7L248 960Z" fill="#005de8"></path><path d="M58 960L56.3 906.7C54.7 853.3 51.3 746.7 52.3 640C53.3 533.3 58.7 426.7 60.3 320C62 213.3 60 106.7 59 53.3L58 0L108 0L108.8 53.3C109.7 106.7 111.3 213.3 109.5 320C107.7 426.7 102.3 533.3 101.5 640C100.7 746.7 104.3 853.3 106.2 906.7L108 960Z" fill="#0057d9"></path><path d="M26 960L26 906.7C26 853.3 26 746.7 26.8 640C27.7 533.3 29.3 426.7 30.2 320C31 213.3 31 106.7 31 53.3L31 0L59 0L60 53.3C61 106.7 63 213.3 61.3 320C59.7 426.7 54.3 533.3 53.3 640C52.3 746.7 55.7 853.3 57.3 906.7L59 960Z" fill="#0052ca"></path><path d="M0 960L0 906.7C0 853.3 0 746.7 0 640C0 533.3 0 426.7 0 320C0 213.3 0 106.7 0 53.3L0 0L32 0L32 53.3C32 106.7 32 213.3 31.2 320C30.3 426.7 28.7 533.3 27.8 640C27 746.7 27 853.3 27 906.7L27 960Z" fill="#004cbb"></path></svg>