<svg id="visual" viewBox="0 0 900 600" width="900" height="600" xmlns="http://www.w3.org/2000/svg" xmlns:xlink="http://www.w3.org/1999/xlink" version="1.1"><g><g transform="translate(434 14)"><path d="M166.9 -127.6C209.1 -80.2 231.1 -11.2 214.4 43.6C197.6 98.4 142.1 139.1 80.8 169.2C19.5 199.2 -47.6 218.7 -99.8 197.4C-151.9 176 -189.2 113.8 -194.2 54.9C-199.1 -4 -171.9 -59.6 -134.1 -106C-96.4 -152.4 -48.2 -189.6 7.1 -195.2C62.4 -200.9 124.7 -175 166.9 -127.6Z" stroke="#007b4d" fill="none" stroke-width="33"></path></g><g transform="translate(771 560)"><path d="M144.1 -120.5C176.3 -74.4 184.9 -15.1 172.9 40.3C160.9 95.7 128.3 147.2 83.6 165.6C39 184.1 -17.8 169.4 -66.6 143.8C-115.5 118.2 -156.5 81.6 -170.3 34.9C-184.1 -11.8 -170.8 -68.7 -137.9 -114.9C-105 -161.2 -52.5 -196.8 1.7 -198.1C55.9 -199.5 111.8 -166.6 144.1 -120.5Z" stroke="#007b4d" fill="none" stroke-width="33"></path></g></g></svg>