<svg id="visual" viewBox="0 0 900 600" width="900" height="600" xmlns="http://www.w3.org/2000/svg" xmlns:xlink="http://www.w3.org/1999/xlink" version="1.1"><path d="M0 384L21.5 379.2C43 374.3 86 364.7 128.8 362.8C171.7 361 214.3 367 257.2 377.3C300 387.7 343 402.3 385.8 412.7C428.7 423 471.3 429 514.2 427.3C557 425.7 600 416.3 642.8 402.2C685.7 388 728.3 369 771.2 375.3C814 381.7 857 413.3 878.5 429.2L900 445L900 601L878.5 601C857 601 814 601 771.2 601C728.3 601 685.7 601 642.8 601C600 601 557 601 514.2 601C471.3 601 428.7 601 385.8 601C343 601 300 601 257.2 601C214.3 601 171.7 601 128.8 601C86 601 43 601 21.5 601L0 601Z" fill="#15b290"></path><path d="M0 405L21.5 409C43 413 86 421 128.8 424.3C171.7 427.7 214.3 426.3 257.2 429.5C300 432.7 343 440.3 385.8 440C428.7 439.7 471.3 431.3 514.2 434C557 436.7 600 450.3 642.8 456C685.7 461.7 728.3 459.3 771.2 449.5C814 439.7 857 422.3 878.5 413.7L900 405L900 601L878.5 601C857 601 814 601 771.2 601C728.3 601 685.7 601 642.8 601C600 601 557 601 514.2 601C471.3 601 428.7 601 385.8 601C343 601 300 601 257.2 601C214.3 601 171.7 601 128.8 601C86 601 43 601 21.5 601L0 601Z" fill="#00adc7"></path><path d="M0 451L21.5 452.7C43 454.3 86 457.7 128.8 466.8C171.7 476 214.3 491 257.2 498.5C300 506 343 506 385.8 499.2C428.7 492.3 471.3 478.7 514.2 477.2C557 475.7 600 486.3 642.8 483.3C685.7 480.3 728.3 463.7 771.2 460.5C814 457.3 857 467.7 878.5 472.8L900 478L900 601L878.5 601C857 601 814 601 771.2 601C728.3 601 685.7 601 642.8 601C600 601 557 601 514.2 601C471.3 601 428.7 601 385.8 601C343 601 300 601 257.2 601C214.3 601 171.7 601 128.8 601C86 601 43 601 21.5 601L0 601Z" fill="#009ee4"></path><path d="M0 516L21.5 514.5C43 513 86 510 128.8 514.3C171.7 518.7 214.3 530.3 257.2 532.2C300 534 343 526 385.8 515.8C428.7 505.7 471.3 493.3 514.2 488.3C557 483.3 600 485.7 642.8 495.2C685.7 504.7 728.3 521.3 771.2 527.7C814 534 857 530 878.5 528L900 526L900 601L878.5 601C857 601 814 601 771.2 601C728.3 601 685.7 601 642.8 601C600 601 557 601 514.2 601C471.3 601 428.7 601 385.8 601C343 601 300 601 257.2 601C214.3 601 171.7 601 128.8 601C86 601 43 601 21.5 601L0 601Z" fill="#0087f8"></path><path d="M0 564L21.5 558.7C43 553.3 86 542.7 128.8 538.5C171.7 534.3 214.3 536.7 257.2 541.5C300 546.3 343 553.7 385.8 551.3C428.7 549 471.3 537 514.2 536.8C557 536.7 600 548.3 642.8 554.5C685.7 560.7 728.3 561.3 771.2 559.8C814 558.3 857 554.7 878.5 552.8L900 551L900 601L878.5 601C857 601 814 601 771.2 601C728.3 601 685.7 601 642.8 601C600 601 557 601 514.2 601C471.3 601 428.7 601 385.8 601C343 601 300 601 257.2 601C214.3 601 171.7 601 128.8 601C86 601 43 601 21.5 601L0 601Z" fill="#0066ff"></path></svg>