<svg id="visual" viewBox="0 0 900 600" width="900" height="600" xmlns="http://www.w3.org/2000/svg" xmlns:xlink="http://www.w3.org/1999/xlink" version="1.1"><g><g transform="translate(489 156)"><path d="M91.8 -29.5C104.4 9 90.1 56.6 56.1 82.5C22.2 108.4 -31.3 112.6 -61.8 89.5C-92.3 66.3 -99.8 15.7 -85.6 -24.9C-71.5 -65.5 -35.7 -96.2 1.9 -96.8C39.6 -97.4 79.1 -68 91.8 -29.5Z" stroke="#007b4d" fill="none" stroke-width="20"></path></g><g transform="translate(861 99)"><path d="M86.7 -29.6C97.6 5.2 81.3 47.5 53.1 66.4C24.9 85.3 -15.4 81 -42.4 60.8C-69.4 40.6 -83.1 4.6 -73.8 -28.1C-64.5 -60.7 -32.2 -90 2.8 -90.9C37.9 -91.8 75.8 -64.4 86.7 -29.6Z" stroke="#007b4d" fill="none" stroke-width="20"></path></g><g transform="translate(536 592)"><path d="M83 -29C93.5 5.5 78.4 46.2 50.6 65.5C22.8 84.7 -17.6 82.3 -44.9 62.4C-72.2 42.4 -86.4 4.9 -76.7 -28.4C-67 -61.7 -33.5 -90.8 1.4 -91.2C36.2 -91.7 72.5 -63.5 83 -29Z" stroke="#007b4d" fill="none" stroke-width="20"></path></g></g></svg>