<svg id="visual" viewBox="0 0 900 600" width="900" height="600" xmlns="http://www.w3.org/2000/svg" xmlns:xlink="http://www.w3.org/1999/xlink" version="1.1"><path d="M0 427L8.8 414.7C17.7 402.3 35.3 377.7 53 374.5C70.7 371.3 88.3 389.7 106 399.2C123.7 408.7 141.3 409.3 159 402.7C176.7 396 194.3 382 212 382.3C229.7 382.7 247.3 397.3 265 397.2C282.7 397 300.3 382 318 372.3C335.7 362.7 353.3 358.3 371 364.7C388.7 371 406.3 388 423.8 400.7C441.3 413.3 458.7 421.7 476.2 424.8C493.7 428 511.3 426 529 415.2C546.7 404.3 564.3 384.7 582 373C599.7 361.3 617.3 357.7 635 362.3C652.7 367 670.3 380 688 385.5C705.7 391 723.3 389 741 383.3C758.7 377.7 776.3 368.3 794 370.5C811.7 372.7 829.3 386.3 847 389.2C864.7 392 882.3 384 891.2 380L900 376L900 601L891.2 601C882.3 601 864.7 601 847 601C829.3 601 811.7 601 794 601C776.3 601 758.7 601 741 601C723.3 601 705.7 601 688 601C670.3 601 652.7 601 635 601C617.3 601 599.7 601 582 601C564.3 601 546.7 601 529 601C511.3 601 493.7 601 476.2 601C458.7 601 441.3 601 423.8 601C406.3 601 388.7 601 371 601C353.3 601 335.7 601 318 601C300.3 601 282.7 601 265 601C247.3 601 229.7 601 212 601C194.3 601 176.7 601 159 601C141.3 601 123.7 601 106 601C88.3 601 70.7 601 53 601C35.3 601 17.7 601 8.8 601L0 601Z" fill="#0066ff"></path><path d="M0 431L8.8 427.2C17.7 423.3 35.3 415.7 53 416C70.7 416.3 88.3 424.7 106 421.3C123.7 418 141.3 403 159 407C176.7 411 194.3 434 212 438.2C229.7 442.3 247.3 427.7 265 421.3C282.7 415 300.3 417 318 423.5C335.7 430 353.3 441 371 435.2C388.7 429.3 406.3 406.7 423.8 395.8C441.3 385 458.7 386 476.2 387.2C493.7 388.3 511.3 389.7 529 397.5C546.7 405.3 564.3 419.7 582 420.3C599.7 421 617.3 408 635 411.2C652.7 414.3 670.3 433.7 688 441.8C705.7 450 723.3 447 741 435C758.7 423 776.3 402 794 397.7C811.7 393.3 829.3 405.7 847 410C864.7 414.3 882.3 410.7 891.2 408.8L900 407L900 601L891.2 601C882.3 601 864.7 601 847 601C829.3 601 811.7 601 794 601C776.3 601 758.7 601 741 601C723.3 601 705.7 601 688 601C670.3 601 652.7 601 635 601C617.3 601 599.7 601 582 601C564.3 601 546.7 601 529 601C511.3 601 493.7 601 476.2 601C458.7 601 441.3 601 423.8 601C406.3 601 388.7 601 371 601C353.3 601 335.7 601 318 601C300.3 601 282.7 601 265 601C247.3 601 229.7 601 212 601C194.3 601 176.7 601 159 601C141.3 601 123.7 601 106 601C88.3 601 70.7 601 53 601C35.3 601 17.7 601 8.8 601L0 601Z" fill="#0086ff"></path><path d="M0 406L8.8 406C17.7 406 35.3 406 53 410.5C70.7 415 88.3 424 106 432.8C123.7 441.7 141.3 450.3 159 455.7C176.7 461 194.3 463 212 459.5C229.7 456 247.3 447 265 440.2C282.7 433.3 300.3 428.7 318 430.3C335.7 432 353.3 440 371 436.8C388.7 433.7 406.3 419.3 423.8 421C441.3 422.7 458.7 440.3 476.2 441.8C493.7 443.3 511.3 428.7 529 424C546.7 419.3 564.3 424.7 582 433.7C599.7 442.7 617.3 455.3 635 454.2C652.7 453 670.3 438 688 429.7C705.7 421.3 723.3 419.7 741 423.2C758.7 426.7 776.3 435.3 794 439C811.7 442.7 829.3 441.3 847 444.5C864.7 447.7 882.3 455.3 891.2 459.2L900 463L900 601L891.2 601C882.3 601 864.7 601 847 601C829.3 601 811.7 601 794 601C776.3 601 758.7 601 741 601C723.3 601 705.7 601 688 601C670.3 601 652.7 601 635 601C617.3 601 599.7 601 582 601C564.3 601 546.7 601 529 601C511.3 601 493.7 601 476.2 601C458.7 601 441.3 601 423.8 601C406.3 601 388.7 601 371 601C353.3 601 335.7 601 318 601C300.3 601 282.7 601 265 601C247.3 601 229.7 601 212 601C194.3 601 176.7 601 159 601C141.3 601 123.7 601 106 601C88.3 601 70.7 601 53 601C35.3 601 17.7 601 8.8 601L0 601Z" fill="#00a1ff"></path><path d="M0 485L8.8 483.5C17.7 482 35.3 479 53 480.7C70.7 482.3 88.3 488.7 106 483.2C123.7 477.7 141.3 460.3 159 452.3C176.7 444.3 194.3 445.7 212 448.7C229.7 451.7 247.3 456.3 265 457.5C282.7 458.7 300.3 456.3 318 460.7C335.7 465 353.3 476 371 481.8C388.7 487.7 406.3 488.3 423.8 484C441.3 479.7 458.7 470.3 476.2 471C493.7 471.7 511.3 482.3 529 488.5C546.7 494.7 564.3 496.3 582 495.8C599.7 495.3 617.3 492.7 635 483C652.7 473.3 670.3 456.7 688 452.2C705.7 447.7 723.3 455.3 741 460.5C758.7 465.7 776.3 468.3 794 466.8C811.7 465.3 829.3 459.7 847 455C864.7 450.3 882.3 446.7 891.2 444.8L900 443L900 601L891.2 601C882.3 601 864.7 601 847 601C829.3 601 811.7 601 794 601C776.3 601 758.7 601 741 601C723.3 601 705.7 601 688 601C670.3 601 652.7 601 635 601C617.3 601 599.7 601 582 601C564.3 601 546.7 601 529 601C511.3 601 493.7 601 476.2 601C458.7 601 441.3 601 423.8 601C406.3 601 388.7 601 371 601C353.3 601 335.7 601 318 601C300.3 601 282.7 601 265 601C247.3 601 229.7 601 212 601C194.3 601 176.7 601 159 601C141.3 601 123.7 601 106 601C88.3 601 70.7 601 53 601C35.3 601 17.7 601 8.8 601L0 601Z" fill="#00b8ff"></path><path d="M0 499L8.8 501.3C17.7 503.7 35.3 508.3 53 504.2C70.7 500 88.3 487 106 485.7C123.7 484.3 141.3 494.7 159 501.8C176.7 509 194.3 513 212 509.5C229.7 506 247.3 495 265 492.5C282.7 490 300.3 496 318 498.3C335.7 500.7 353.3 499.3 371 493.2C388.7 487 406.3 476 423.8 470C441.3 464 458.7 463 476.2 470C493.7 477 511.3 492 529 492.5C546.7 493 564.3 479 582 473.3C599.7 467.7 617.3 470.3 635 474C652.7 477.7 670.3 482.3 688 485.7C705.7 489 723.3 491 741 488.8C758.7 486.7 776.3 480.3 794 479C811.7 477.7 829.3 481.3 847 481.5C864.7 481.7 882.3 478.3 891.2 476.7L900 475L900 601L891.2 601C882.3 601 864.7 601 847 601C829.3 601 811.7 601 794 601C776.3 601 758.7 601 741 601C723.3 601 705.7 601 688 601C670.3 601 652.7 601 635 601C617.3 601 599.7 601 582 601C564.3 601 546.7 601 529 601C511.3 601 493.7 601 476.2 601C458.7 601 441.3 601 423.8 601C406.3 601 388.7 601 371 601C353.3 601 335.7 601 318 601C300.3 601 282.7 601 265 601C247.3 601 229.7 601 212 601C194.3 601 176.7 601 159 601C141.3 601 123.7 601 106 601C88.3 601 70.7 601 53 601C35.3 601 17.7 601 8.8 601L0 601Z" fill="#00cdff"></path><path d="M0 513L8.8 514.7C17.7 516.3 35.3 519.7 53 520.3C70.7 521 88.3 519 106 519C123.7 519 141.3 521 159 517.5C176.7 514 194.3 505 212 499.7C229.7 494.3 247.3 492.7 265 499.3C282.7 506 300.3 521 318 522.5C335.7 524 353.3 512 371 507.2C388.7 502.3 406.3 504.7 423.8 505.2C441.3 505.7 458.7 504.3 476.2 505.3C493.7 506.3 511.3 509.7 529 512.5C546.7 515.3 564.3 517.7 582 520.2C599.7 522.7 617.3 525.3 635 522C652.7 518.7 670.3 509.3 688 509.2C705.7 509 723.3 518 741 524.7C758.7 531.3 776.3 535.7 794 537.7C811.7 539.7 829.3 539.3 847 534.8C864.7 530.3 882.3 521.7 891.2 517.3L900 513L900 601L891.2 601C882.3 601 864.7 601 847 601C829.3 601 811.7 601 794 601C776.3 601 758.7 601 741 601C723.3 601 705.7 601 688 601C670.3 601 652.7 601 635 601C617.3 601 599.7 601 582 601C564.3 601 546.7 601 529 601C511.3 601 493.7 601 476.2 601C458.7 601 441.3 601 423.8 601C406.3 601 388.7 601 371 601C353.3 601 335.7 601 318 601C300.3 601 282.7 601 265 601C247.3 601 229.7 601 212 601C194.3 601 176.7 601 159 601C141.3 601 123.7 601 106 601C88.3 601 70.7 601 53 601C35.3 601 17.7 601 8.8 601L0 601Z" fill="#00e0fb"></path><path d="M0 540L8.8 541.5C17.7 543 35.3 546 53 549C70.7 552 88.3 555 106 552C123.7 549 141.3 540 159 535.7C176.7 531.3 194.3 531.7 212 530.5C229.7 529.3 247.3 526.7 265 530.2C282.7 533.7 300.3 543.3 318 548.2C335.7 553 353.3 553 371 552.5C388.7 552 406.3 551 423.8 546.5C441.3 542 458.7 534 476.2 529.5C493.7 525 511.3 524 529 525.3C546.7 526.7 564.3 530.3 582 533.3C599.7 536.3 617.3 538.7 635 539.8C652.7 541 670.3 541 688 540.7C705.7 540.3 723.3 539.7 741 540.3C758.7 541 776.3 543 794 540.3C811.7 537.7 829.3 530.3 847 527C864.7 523.7 882.3 524.3 891.2 524.7L900 525L900 601L891.2 601C882.3 601 864.7 601 847 601C829.3 601 811.7 601 794 601C776.3 601 758.7 601 741 601C723.3 601 705.7 601 688 601C670.3 601 652.7 601 635 601C617.3 601 599.7 601 582 601C564.3 601 546.7 601 529 601C511.3 601 493.7 601 476.2 601C458.7 601 441.3 601 423.8 601C406.3 601 388.7 601 371 601C353.3 601 335.7 601 318 601C300.3 601 282.7 601 265 601C247.3 601 229.7 601 212 601C194.3 601 176.7 601 159 601C141.3 601 123.7 601 106 601C88.3 601 70.7 601 53 601C35.3 601 17.7 601 8.8 601L0 601Z" fill="#00f1e8"></path><path d="M0 551L8.8 552.7C17.7 554.3 35.3 557.7 53 560C70.7 562.3 88.3 563.7 106 565.7C123.7 567.7 141.3 570.3 159 570.8C176.7 571.3 194.3 569.7 212 570.5C229.7 571.3 247.3 574.7 265 573C282.7 571.3 300.3 564.7 318 565.2C335.7 565.7 353.3 573.3 371 577.2C388.7 581 406.3 581 423.8 577.2C441.3 573.3 458.7 565.7 476.2 563.2C493.7 560.7 511.3 563.3 529 567C546.7 570.7 564.3 575.3 582 578C599.7 580.7 617.3 581.3 635 580.3C652.7 579.3 670.3 576.7 688 575.3C705.7 574 723.3 574 741 573.3C758.7 572.7 776.3 571.3 794 570.8C811.7 570.3 829.3 570.7 847 572.2C864.7 573.7 882.3 576.3 891.2 577.7L900 579L900 601L891.2 601C882.3 601 864.7 601 847 601C829.3 601 811.7 601 794 601C776.3 601 758.7 601 741 601C723.3 601 705.7 601 688 601C670.3 601 652.7 601 635 601C617.3 601 599.7 601 582 601C564.3 601 546.7 601 529 601C511.3 601 493.7 601 476.2 601C458.7 601 441.3 601 423.8 601C406.3 601 388.7 601 371 601C353.3 601 335.7 601 318 601C300.3 601 282.7 601 265 601C247.3 601 229.7 601 212 601C194.3 601 176.7 601 159 601C141.3 601 123.7 601 106 601C88.3 601 70.7 601 53 601C35.3 601 17.7 601 8.8 601L0 601Z" fill="#08ffca"></path></svg>