<svg id="visual" viewBox="0 0 900 600" width="900" height="600" xmlns="http://www.w3.org/2000/svg" xmlns:xlink="http://www.w3.org/1999/xlink" version="1.1"><path d="M0 338L12.5 349.5C25 361 50 384 75 385.3C100 386.7 125 366.3 150 350.3C175 334.3 200 322.7 225 312.2C250 301.7 275 292.3 300 300.2C325 308 350 333 375 333.5C400 334 425 310 450 311.2C475 312.3 500 338.7 525 351.3C550 364 575 363 600 373.5C625 384 650 406 675 402.5C700 399 725 370 750 367.3C775 364.7 800 388.3 825 392.3C850 396.3 875 380.7 887.5 372.8L900 365L900 601L887.5 601C875 601 850 601 825 601C800 601 775 601 750 601C725 601 700 601 675 601C650 601 625 601 600 601C575 601 550 601 525 601C500 601 475 601 450 601C425 601 400 601 375 601C350 601 325 601 300 601C275 601 250 601 225 601C200 601 175 601 150 601C125 601 100 601 75 601C50 601 25 601 12.5 601L0 601Z" fill="#0ab94d"></path><path d="M0 388L12.5 396.5C25 405 50 422 75 428.3C100 434.7 125 430.3 150 423C175 415.7 200 405.3 225 403.7C250 402 275 409 300 408.5C325 408 350 400 375 384.8C400 369.7 425 347.3 450 353.3C475 359.3 500 393.7 525 390.7C550 387.7 575 347.3 600 339.2C625 331 650 355 675 358C700 361 725 343 750 342.2C775 341.3 800 357.7 825 377.5C850 397.3 875 420.7 887.5 432.3L900 444L900 601L887.5 601C875 601 850 601 825 601C800 601 775 601 750 601C725 601 700 601 675 601C650 601 625 601 600 601C575 601 550 601 525 601C500 601 475 601 450 601C425 601 400 601 375 601C350 601 325 601 300 601C275 601 250 601 225 601C200 601 175 601 150 601C125 601 100 601 75 601C50 601 25 601 12.5 601L0 601Z" fill="#00b093"></path><path d="M0 427L12.5 429.8C25 432.7 50 438.3 75 426.2C100 414 125 384 150 386.2C175 388.3 200 422.7 225 423.7C250 424.7 275 392.3 300 395.5C325 398.7 350 437.3 375 442.7C400 448 425 420 450 403.3C475 386.7 500 381.3 525 377.2C550 373 575 370 600 376C625 382 650 397 675 400.2C700 403.3 725 394.7 750 406C775 417.3 800 448.7 825 447.5C850 446.3 875 412.7 887.5 395.8L900 379L900 601L887.5 601C875 601 850 601 825 601C800 601 775 601 750 601C725 601 700 601 675 601C650 601 625 601 600 601C575 601 550 601 525 601C500 601 475 601 450 601C425 601 400 601 375 601C350 601 325 601 300 601C275 601 250 601 225 601C200 601 175 601 150 601C125 601 100 601 75 601C50 601 25 601 12.5 601L0 601Z" fill="#00a1bb"></path><path d="M0 466L12.5 456.7C25 447.3 50 428.7 75 426.5C100 424.3 125 438.7 150 438.3C175 438 200 423 225 426.5C250 430 275 452 300 469.7C325 487.3 350 500.7 375 499C400 497.3 425 480.7 450 478.3C475 476 500 488 525 487.5C550 487 575 474 600 463C625 452 650 443 675 434C700 425 725 416 750 411.2C775 406.3 800 405.7 825 415.5C850 425.3 875 445.7 887.5 455.8L900 466L900 601L887.5 601C875 601 850 601 825 601C800 601 775 601 750 601C725 601 700 601 675 601C650 601 625 601 600 601C575 601 550 601 525 601C500 601 475 601 450 601C425 601 400 601 375 601C350 601 325 601 300 601C275 601 250 601 225 601C200 601 175 601 150 601C125 601 100 601 75 601C50 601 25 601 12.5 601L0 601Z" fill="#008cbc"></path><path d="M0 436L12.5 445.5C25 455 50 474 75 488.7C100 503.3 125 513.7 150 520.2C175 526.7 200 529.3 225 520.3C250 511.3 275 490.7 300 487.3C325 484 350 498 375 497.2C400 496.3 425 480.7 450 482C475 483.3 500 501.7 525 497.5C550 493.3 575 466.7 600 469.3C625 472 650 504 675 505C700 506 725 476 750 468.7C775 461.3 800 476.7 825 489.3C850 502 875 512 887.5 517L900 522L900 601L887.5 601C875 601 850 601 825 601C800 601 775 601 750 601C725 601 700 601 675 601C650 601 625 601 600 601C575 601 550 601 525 601C500 601 475 601 450 601C425 601 400 601 375 601C350 601 325 601 300 601C275 601 250 601 225 601C200 601 175 601 150 601C125 601 100 601 75 601C50 601 25 601 12.5 601L0 601Z" fill="#0076ba"></path><path d="M0 501L12.5 505.5C25 510 50 519 75 517C100 515 125 502 150 494C175 486 200 483 225 481.8C250 480.7 275 481.3 300 482.5C325 483.7 350 485.3 375 493.7C400 502 425 517 450 519.3C475 521.7 500 511.3 525 510.8C550 510.3 575 519.7 600 515.5C625 511.3 650 493.7 675 491.7C700 489.7 725 503.3 750 510.7C775 518 800 519 825 514.3C850 509.7 875 499.3 887.5 494.2L900 489L900 601L887.5 601C875 601 850 601 825 601C800 601 775 601 750 601C725 601 700 601 675 601C650 601 625 601 600 601C575 601 550 601 525 601C500 601 475 601 450 601C425 601 400 601 375 601C350 601 325 601 300 601C275 601 250 601 225 601C200 601 175 601 150 601C125 601 100 601 75 601C50 601 25 601 12.5 601L0 601Z" fill="#005db4"></path><path d="M0 550L12.5 554.7C25 559.3 50 568.7 75 565.5C100 562.3 125 546.7 150 539.5C175 532.3 200 533.7 225 533.3C250 533 275 531 300 529.5C325 528 350 527 375 535.2C400 543.3 425 560.7 450 564.8C475 569 500 560 525 561C550 562 575 573 600 571.2C625 569.3 650 554.7 675 547.5C700 540.3 725 540.7 750 545.3C775 550 800 559 825 566.2C850 573.3 875 578.7 887.5 581.3L900 584L900 601L887.5 601C875 601 850 601 825 601C800 601 775 601 750 601C725 601 700 601 675 601C650 601 625 601 600 601C575 601 550 601 525 601C500 601 475 601 450 601C425 601 400 601 375 601C350 601 325 601 300 601C275 601 250 601 225 601C200 601 175 601 150 601C125 601 100 601 75 601C50 601 25 601 12.5 601L0 601Z" fill="#0042a6"></path></svg>